<svg width="100" height="100" viewBox="0 0 100 100" fill="none" xmlns="http://www.w3.org/2000/svg">
  <!-- Speech Bubble Background -->
  <path d="M85,10 H15 C9.477,10 5,14.477 5,20 V60 C5,65.523 9.477,70 15,70 H30 L20,85 L45,70 H85 C90.523,70 95,65.523 95,60 V20 C95,14.477 90.523,10 85,10 Z" fill="#0D6EFD"/>
  <!-- Abstract AI Icon -->
  <g fill="none" stroke="white" stroke-width="3" stroke-linecap="round" stroke-linejoin="round">
    <!-- Central Node -->
    <circle cx="50" cy="40" r="8"/>
    <!-- Connecting Lines and Outer Nodes -->
    <line x1="50" y1="40" x2="35" y2="28"/>
    <circle cx="35" cy="28" r="4"/>
    <line x1="50" y1="40" x2="65" y2="28"/>
    <circle cx="65" cy="28" r="4"/>
    <line x1="50" y1="40" x2="38" y2="55"/>
    <circle cx="38" cy="55" r="4"/>
    <line x1="50" y1="40" x2="62" y2="55"/>
    <circle cx="62" cy="55" r="4"/>
     <line x1="50" y1="40" x2="50" y2="58"/>
     <circle cx="50" cy="58" r="4"/>
  </g>
</svg>
